<?xml version="1.0" encoding="UTF-8" standalone="no"?>
<svg
   xmlns:dc="http://purl.org/dc/elements/1.1/"
   xmlns:cc="http://creativecommons.org/ns#"
   xmlns:rdf="http://www.w3.org/1999/02/22-rdf-syntax-ns#"
   xmlns:svg="http://www.w3.org/2000/svg"
   xmlns="http://www.w3.org/2000/svg"
   viewBox="0 0 258.66666 258.66666"
   height="258.66666"
   width="258.66666"
   xml:space="preserve"
   id="svg2"
   version="1.1"><metadata
     id="metadata8"><rdf:RDF><cc:Work
         rdf:about=""><dc:format>image/svg+xml</dc:format><dc:type
           rdf:resource="http://purl.org/dc/dcmitype/StillImage" /></cc:Work></rdf:RDF></metadata><defs
     id="defs6" /><g
     transform="matrix(1.3333333,0,0,-1.3333333,0,258.66667)"
     id="g10"><g
       transform="scale(0.1)"
       id="g12"><path
         id="path14"
         style="fill:#ffffff;fill-opacity:1;fill-rule:evenodd;stroke:none"
         d="M 2.59766,1933.23 H 1930.16 V 5.66797 H 2.59766 V 1933.23" /><path
         id="path16"
         style="fill:#231f20;fill-opacity:1;fill-rule:evenodd;stroke:none"
         d="M 30.9453,510.387 H 1901.81 L 966.824,1428.52 Z" /><path
         id="path18"
         style="fill:#ffffff;fill-opacity:1;fill-rule:evenodd;stroke:none"
         d="M 54.9102,520.152 H 1876.96 L 966.824,1416.09 Z" /><path
         id="path20"
         style="fill:#231f20;fill-opacity:1;fill-rule:evenodd;stroke:none"
         d="M 800.855,800.16 H 1126.57 L 1321.82,993.633 1158.52,1152.5 800.855,800.16" /><path
         id="path22"
         style="fill:#231f20;fill-opacity:1;fill-rule:evenodd;stroke:none"
         d="M 749.383,800.16 H 416.566 L 775.121,1153.39 940.199,988.313 749.383,800.16" /><path
         id="path24"
         style="fill:#231f20;fill-opacity:1;fill-rule:evenodd;stroke:none"
         d="M 811.508,1188.89 H 1121.25 L 967.711,1340.66 Z" /><path
         id="path26"
         style="fill:#231f20;fill-opacity:1;fill-rule:evenodd;stroke:none"
         d="M 840.797,768.211 H 1082.2 V 713.184 H 840.797 v 55.027" /><path
         id="path28"
         style="fill:#231f20;fill-opacity:1;fill-rule:evenodd;stroke:none"
         d="M 840.797,688.336 V 555.207 H 1082.2 V 610.23 H 895.824 v 23.075 H 1082.2 v 55.031 H 840.797" /><path
         id="path30"
         style="fill:#231f20;fill-opacity:1;fill-rule:evenodd;stroke:none"
         d="M 166.289,555.207 382.84,768.211 h 62.129 V 657.27 l -47.93,-47.04 h 47.93 v -55.023 h -55.028 v 55.023 h -63.898 l 63.898,63.903 v 30.176 L 238.18,555.207 h -71.891" /><path
         id="path32"
         style="fill:#231f20;fill-opacity:1;fill-rule:evenodd;stroke:none"
         d="m 1145.21,768.211 h 71 l 77.21,-74.555 76.33,74.555 h 72.77 L 1328.92,657.27 1434.54,555.207 h -72.78 l -68.34,67.449 -69.22,-67.449 h -71.89 l 104.73,102.953 -111.83,110.051" /><path
         id="path34"
         style="fill:#231f20;fill-opacity:1;fill-rule:evenodd;stroke:none"
         d="m 711.219,767.883 c 45.406,0 69.789,-36.809 69.789,-82.215 0,-45.402 -24.383,-82.207 -69.789,-82.207 H 563.895 v -48.254 h -55.028 v 213.004 l 202.352,-0.328" /><path
         id="path36"
         style="fill:#ffffff;fill-opacity:1;fill-rule:evenodd;stroke:none"
         d="m 698.797,713.281 c 15.246,0 24.949,-12.359 24.949,-27.613 0,-15.246 -9.703,-27.609 -24.949,-27.609 H 563.895 v 55.125 l 134.902,0.097" /><path
         id="path38"
         style="fill:#231f20;fill-opacity:1;fill-rule:evenodd;stroke:none"
         d="m 1558.9,607.973 h 41.4 v -6.11 h -17.26 v -44.879 h -6.89 v 44.879 h -17.25 v 6.11" /><path
         id="path40"
         style="fill:#231f20;fill-opacity:1;fill-rule:evenodd;stroke:none"
         d="m 1659.29,556.984 v 30.11 c 0,1.488 0.14,7.953 0.14,12.707 h -0.14 l -14.34,-42.817 h -6.82 l -14.35,42.746 h -0.14 c 0,-4.683 0.14,-11.148 0.14,-12.636 v -30.11 h -6.67 v 50.989 h 9.87 l 14.56,-43.106 h 0.14 l 14.48,43.106 h 9.8 v -50.989 h -6.67" /></g></g></svg>